{
  "accessors": [
    {
      "bufferView": 2,
      "componentType": 5126,
      "count": 1917,
      "max": [
        3.215439796447754,
        26.981502532958984,
        2.0617103576660156
      ],
      "min": [
        -1.11391019821167,
        25.086759567260742,
        -1.8150049448013306
      ],
      "type": "VEC3"
    },
    {
      "bufferView": 2,
      "byteOffset": 23004,
      "componentType": 5126,
      "count": 1917,
      "max": [
        0.9999940991401672,
        0.9999721050262451,
        0.9976950883865356
      ],
      "min": [
        -0.9995368719100952,
        -0.9995909929275513,
        -0.9934623837471008
      ],
      "type": "VEC3"
    },
    {
      "bufferView": 1,
      "componentType": 5126,
      "count": 1917,
      "max": [
        0.9071502685546875,
        0.9995005130767822
      ],
      "min": [
        0.0004533529281616211,
        0.0004994869232177734
      ],
      "type": "VEC2"
    },
    {
      "bufferView": 1,
      "byteOffset": 15336,
      "componentType": 5126,
      "count": 1917,
      "max": [
        0.9071502685546875,
        0.9995005130767822
      ],
      "min": [
        0.0004533529281616211,
        0.0004994869232177734
      ],
      "type": "VEC2"
    },
    {
      "bufferView": 0,
      "componentType": 5125,
      "count": 9888,
      "type": "SCALAR"
    },
    {
      "bufferView": 2,
      "byteOffset": 46008,
      "componentType": 5126,
      "count": 1905,
      "max": [
        3.252671241760254,
        26.633867263793945,
        2.061709403991699
      ],
      "min": [
        -1.4574580192565918,
        25.092586517333984,
        -1.8150036334991455
      ],
      "type": "VEC3"
    },
    {
      "bufferView": 2,
      "byteOffset": 68868,
      "componentType": 5126,
      "count": 1905,
      "max": [
        0.9984419345855713,
        0.9999781847000122,
        0.9974163770675659
      ],
      "min": [
        -0.995637059211731,
        -0.9999258518218994,
        -0.9963319897651672
      ],
      "type": "VEC3"
    },
    {
      "bufferView": 1,
      "byteOffset": 30672,
      "componentType": 5126,
      "count": 1905,
      "max": [
        0.9420859813690186,
        0.9995003938674927
      ],
      "min": [
        0.00047081708908081055,
        0.0004994869232177734
      ],
      "type": "VEC2"
    },
    {
      "bufferView": 1,
      "byteOffset": 45912,
      "componentType": 5126,
      "count": 1905,
      "max": [
        0.9420859813690186,
        0.9995003938674927
      ],
      "min": [
        0.00047081708908081055,
        0.0004994869232177734
      ],
      "type": "VEC2"
    },
    {
      "bufferView": 0,
      "byteOffset": 39552,
      "componentType": 5125,
      "count": 9888,
      "type": "SCALAR"
    },
    {
      "bufferView": 2,
      "byteOffset": 91728,
      "componentType": 5126,
      "count": 1591,
      "max": [
        2.83815860748291,
        27.036930084228516,
        2.061716079711914
      ],
      "min": [
        -1.3829669952392578,
        25.26131248474121,
        -1.7962818145751953
      ],
      "type": "VEC3"
    },
    {
      "bufferView": 2,
      "byteOffset": 110820,
      "componentType": 5126,
      "count": 1591,
      "max": [
        0.999441921710968,
        0.9999937415122986,
        0.9182079434394836
      ],
      "min": [
        -0.998309314250946,
        -0.9996686577796936,
        -0.9707579016685486
      ],
      "type": "VEC3"
    },
    {
      "bufferView": 1,
      "byteOffset": 61152,
      "componentType": 5126,
      "count": 1591,
      "max": [
        0.9088672399520874,
        0.9995005130767822
      ],
      "min": [
        0.00045418739318847656,
        0.0004995018243789673
      ],
      "type": "VEC2"
    },
    {
      "bufferView": 1,
      "byteOffset": 73880,
      "componentType": 5126,
      "count": 1591,
      "max": [
        0.9088672399520874,
        0.9995005130767822
      ],
      "min": [
        0.00045418739318847656,
        0.0004995018243789673
      ],
      "type": "VEC2"
    },
    {
      "bufferView": 0,
      "byteOffset": 79104,
      "componentType": 5125,
      "count": 8256,
      "type": "SCALAR"
    },
    {
      "bufferView": 2,
      "byteOffset": 129912,
      "componentType": 5126,
      "count": 277,
      "max": [
        0.5126741528511047,
        0.19292211532592773,
        0.7492157220840454
      ],
      "min": [
        -0.5265452861785889,
        -0.16364812850952148,
        -0.7451826333999634
      ],
      "type": "VEC3"
    },
    {
      "bufferView": 2,
      "byteOffset": 133236,
      "componentType": 5126,
      "count": 277,
      "max": [
        0.9132612347602844,
        0.9942200183868408,
        0.6943914890289307
      ],
      "min": [
        -0.7988357543945313,
        -0.9912018775939941,
        -0.698518693447113
      ],
      "type": "VEC3"
    },
    {
      "bufferView": 1,
      "byteOffset": 86608,
      "componentType": 5126,
      "count": 277,
      "max": [
        0.48991620540618896,
        0.9995004534721375
      ],
      "min": [
        0.0002448558807373047,
        0.0004994869232177734
      ],
      "type": "VEC2"
    },
    {
      "bufferView": 1,
      "byteOffset": 88824,
      "componentType": 5126,
      "count": 277,
      "max": [
        0.48991620540618896,
        0.9995004534721375
      ],
      "min": [
        0.0002448558807373047,
        0.0004994869232177734
      ],
      "type": "VEC2"
    },
    {
      "bufferView": 0,
      "byteOffset": 112128,
      "componentType": 5125,
      "count": 1488,
      "type": "SCALAR"
    },
    {
      "bufferView": 2,
      "byteOffset": 136560,
      "componentType": 5126,
      "count": 863,
      "max": [
        0.8111332058906555,
        1.0603646039962769,
        0.8355650305747986
      ],
      "min": [
        -0.8111332058906555,
        -0.7557752132415771,
        -0.8355650305747986
      ],
      "type": "VEC3"
    },
    {
      "bufferView": 2,
      "byteOffset": 146916,
      "componentType": 5126,
      "count": 863,
      "max": [
        1.0,
        0.9999791383743286,
        1.0
      ],
      "min": [
        -1.0,
        -1.0,
        -1.0
      ],
      "type": "VEC3"
    },
    {
      "bufferView": 1,
      "byteOffset": 91040,
      "componentType": 5126,
      "count": 863,
      "max": [
        0.9957032799720764,
        0.9541528224945068
      ],
      "min": [
        0.039317309856414795,
        0.0016422420740127563
      ],
      "type": "VEC2"
    },
    {
      "bufferView": 1,
      "byteOffset": 97944,
      "componentType": 5126,
      "count": 863,
      "max": [
        0.9957032799720764,
        0.9541528224945068
      ],
      "min": [
        0.039317309856414795,
        0.0016422420740127563
      ],
      "type": "VEC2"
    },
    {
      "bufferView": 0,
      "byteOffset": 118080,
      "componentType": 5125,
      "count": 4608,
      "type": "SCALAR"
    }
  ],
  "asset": {
    "extras": {
      "author": "abdillaamy (https://sketchfab.com/abdillaamy)",
      "license": "CC-BY-4.0 (http://creativecommons.org/licenses/by/4.0/)",
      "source": "https://sketchfab.com/3d-models/vase-and-flowers-3b204e1c8fa34183821cf925128f545c",
      "title": "Vase and Flowers"
    },
    "generator": "Sketchfab-12.66.0",
    "version": "2.0"
  },
  "bufferViews": [
    {
      "buffer": 0,
      "byteLength": 136512,
      "name": "floatBufferViews",
      "target": 34963
    },
    {
      "buffer": 0,
      "byteLength": 104848,
      "byteOffset": 136512,
      "byteStride": 8,
      "name": "floatBufferViews",
      "target": 34962
    },
    {
      "buffer": 0,
      "byteLength": 157272,
      "byteOffset": 241360,
      "byteStride": 12,
      "name": "floatBufferViews",
      "target": 34962
    }
  ],
  "buffers": [
    {
      "byteLength": 398632,
      "uri": "scene.bin"
    }
  ],
  "images": [
    {
      "uri": "textures/Plant1_baseColor.jpeg"
    },
    {
      "uri": "textures/Plant2_baseColor.jpeg"
    },
    {
      "uri": "textures/Plant3_baseColor.jpeg"
    },
    {
      "uri": "textures/Petal_baseColor.jpeg"
    },
    {
      "uri": "textures/VaseTexture_baseColor.jpeg"
    }
  ],
  "materials": [
    {
      "doubleSided": true,
      "name": "Plant1",
      "pbrMetallicRoughness": {
        "baseColorTexture": {
          "index": 0
        },
        "metallicFactor": 0.0,
        "roughnessFactor": 0.5687881098
      }
    },
    {
      "doubleSided": true,
      "name": "Plant2",
      "pbrMetallicRoughness": {
        "baseColorTexture": {
          "index": 1
        },
        "metallicFactor": 0.0,
        "roughnessFactor": 0.6
      }
    },
    {
      "doubleSided": true,
      "name": "Plant3",
      "pbrMetallicRoughness": {
        "baseColorTexture": {
          "index": 2
        },
        "metallicFactor": 0.0,
        "roughnessFactor": 0.6
      }
    },
    {
      "doubleSided": true,
      "name": "Petal",
      "pbrMetallicRoughness": {
        "baseColorTexture": {
          "index": 3
        },
        "metallicFactor": 0.0,
        "roughnessFactor": 0.9895198171
      }
    },
    {
      "doubleSided": true,
      "name": "VaseTexture",
      "pbrMetallicRoughness": {
        "baseColorFactor": [
          0.2029344512,
          0.2029344512,
          0.2029344512,
          1.0
        ],
        "baseColorTexture": {
          "index": 4
        },
        "metallicFactor": 0.6846417683,
        "roughnessFactor": 0.3946265244
      }
    }
  ],
  "meshes": [
    {
      "name": "TallFlower_2_Plant1_0",
      "primitives": [
        {
          "attributes": {
            "NORMAL": 1,
            "POSITION": 0,
            "TEXCOORD_0": 2,
            "TEXCOORD_1": 3
          },
          "indices": 4,
          "material": 0,
          "mode": 4
        }
      ]
    },
    {
      "name": "TallFlower_1_Plant2_0",
      "primitives": [
        {
          "attributes": {
            "NORMAL": 6,
            "POSITION": 5,
            "TEXCOORD_0": 7,
            "TEXCOORD_1": 8
          },
          "indices": 9,
          "material": 1,
          "mode": 4
        }
      ]
    },
    {
      "name": "FlowerBase_PartialHead_Plant3_0",
      "primitives": [
        {
          "attributes": {
            "NORMAL": 11,
            "POSITION": 10,
            "TEXCOORD_0": 12,
            "TEXCOORD_1": 13
          },
          "indices": 14,
          "material": 2,
          "mode": 4
        }
      ]
    },
    {
      "name": "FallingPetal_Petal_0",
      "primitives": [
        {
          "attributes": {
            "NORMAL": 16,
            "POSITION": 15,
            "TEXCOORD_0": 17,
            "TEXCOORD_1": 18
          },
          "indices": 19,
          "material": 3,
          "mode": 4
        }
      ]
    },
    {
      "name": "Vase_VaseTexture_0",
      "primitives": [
        {
          "attributes": {
            "NORMAL": 21,
            "POSITION": 20,
            "TEXCOORD_0": 22,
            "TEXCOORD_1": 23
          },
          "indices": 24,
          "material": 4,
          "mode": 4
        }
      ]
    }
  ],
  "nodes": [
    {
      "children": [
        1
      ],
      "matrix": [
        1.0,
        0.0,
        0.0,
        0.0,
        0.0,
        2.220446049250313e-16,
        -1.0,
        0.0,
        0.0,
        1.0,
        2.220446049250313e-16,
        0.0,
        0.0,
        0.0,
        0.0,
        1.0
      ],
      "name": "Sketchfab_model"
    },
    {
      "children": [
        2
      ],
      "matrix": [
        1.0,
        0.0,
        0.0,
        0.0,
        0.0,
        0.0,
        1.0,
        0.0,
        0.0,
        -1.0,
        0.0,
        0.0,
        0.0,
        0.0,
        0.0,
        1.0
      ],
      "name": "f078fb0644b64201852ba12b9ab4d2ca.fbx"
    },
    {
      "children": [
        3
      ],
      "name": "RootNode"
    },
    {
      "children": [
        4,
        13
      ],
      "name": "Vase_Flowers_HighRes"
    },
    {
      "children": [
        5,
        7,
        9,
        11
      ],
      "matrix": [
        2.4296927452087402,
        0.0,
        0.0,
        0.0,
        0.0,
        2.4296927452087402,
        0.0,
        0.0,
        0.0,
        0.0,
        2.4296927452087402,
        0.0,
        -7.805397033691406,
        -37.38247299194336,
        1.2576473951339722,
        1.0
      ],
      "name": "Flowers"
    },
    {
      "children": [
        6
      ],
      "matrix": [
        1.0,
        0.0,
        0.0,
        0.0,
        0.0,
        4.178162097930908,
        0.0,
        0.0,
        0.0,
        0.0,
        1.0,
        0.0,
        2.1652963161468506,
        -83.84318542480469,
        -0.7214987874031067,
        1.0
      ],
      "name": "TallFlower_2"
    },
    {
      "mesh": 0,
      "name": "TallFlower_2_Plant1_0"
    },
    {
      "children": [
        8
      ],
      "matrix": [
        0.5797853069097046,
        -0.24040530884401268,
        0.6527245985146064,
        0.0,
        1.2039749187103852,
        3.5781847697437645,
        0.24844727360382413,
        0.0,
        -0.6330944058642247,
        0.1696371347839797,
        0.6248278418096667,
        0.0,
        -27.639013290405273,
        -68.82489013671875,
        -7.411196231842041,
        1.0
      ],
      "name": "TallFlower_1"
    },
    {
      "mesh": 1,
      "name": "TallFlower_1_Plant2_0"
    },
    {
      "children": [
        10
      ],
      "matrix": [
        0.39581023606933474,
        -0.5362100453450508,
        -0.7455287011871482,
        0.0,
        -1.3069985268950974,
        0.9096714659290149,
        -1.3481685840760271,
        0.0,
        0.6715150297076548,
        0.722767501362861,
        -0.1633239230805279,
        0.0,
        36.2901611328125,
        0.536207377910614,
        34.88863754272461,
        1.0
      ],
      "name": "FlowerBase_PartialHead"
    },
    {
      "mesh": 2,
      "name": "FlowerBase_PartialHead_Plant3_0"
    },
    {
      "children": [
        12
      ],
      "matrix": [
        1.8424057081942438,
        1.677541069679095,
        1.1484113954401627,
        0.0,
        -0.1811889328350521,
        0.6148654011702467,
        -0.6074812923669113,
        0.0,
        -0.6288017843211114,
        0.3320968331121245,
        0.5236816026799207,
        0.0,
        0.02689695730805397,
        22.268354415893555,
        -1.8600130081176758,
        1.0
      ],
      "name": "FallingPetal"
    },
    {
      "mesh": 3,
      "name": "FallingPetal_Petal_0"
    },
    {
      "children": [
        14
      ],
      "matrix": [
        10.987539587022784,
        0.0,
        -0.5234250888209407,
        0.0,
        0.0,
        11.0,
        0.0,
        0.0,
        0.5234250888209407,
        0.0,
        10.987539587022784,
        0.0,
        0.0,
        8.320024490356445,
        0.0,
        1.0
      ],
      "name": "Vase"
    },
    {
      "mesh": 4,
      "name": "Vase_VaseTexture_0"
    }
  ],
  "samplers": [
    {
      "magFilter": 9729,
      "minFilter": 9987,
      "wrapS": 10497,
      "wrapT": 10497
    }
  ],
  "scene": 0,
  "scenes": [
    {
      "name": "Sketchfab_Scene",
      "nodes": [
        0
      ]
    }
  ],
  "textures": [
    {
      "sampler": 0,
      "source": 0
    },
    {
      "sampler": 0,
      "source": 1
    },
    {
      "sampler": 0,
      "source": 2
    },
    {
      "sampler": 0,
      "source": 3
    },
    {
      "sampler": 0,
      "source": 4
    }
  ]
}
